<svg xmlns="http://www.w3.org/2000/svg" version="1.1" xmlns:xlink="http://www.w3.org/1999/xlink" xmlns:svgjs="http://svgjs.com/svgjs" width="1920" height="1080" preserveAspectRatio="none" viewBox="0 0 1920 1080"><g mask="url(&quot;#SvgjsMask1036&quot;)" fill="none"><path d="M706.621,891.536C781.318,892.383,839.295,835.607,877.962,771.691C918.409,704.835,943.591,625.895,910.012,555.339C871.781,475.009,795.578,410.531,706.621,411.671C619.127,412.792,548.793,481.02,512.063,560.439C480.634,628.396,503.947,703.328,541.879,767.881C579.162,831.33,633.034,890.702,706.621,891.536" fill="rgba(28, 83, 142, 0.4)" class="triangle-float1"></path><path d="M655.3929129806736-5.915269839733812L556.6473311700286 171.8267774194272 734.3893784291896 171.82677741942715z" fill="rgba(28, 83, 142, 0.4)" class="triangle-float1"></path><path d="M1706.84986221325 465.16114438408704L1906.1971974037428 335.7034712276917 1776.7395242473474 136.3561360371989 1577.3921890568547 265.81380919359424z" fill="rgba(28, 83, 142, 0.4)" class="triangle-float3"></path><path d="M1359.3941448815292 456.9054384559077L1609.6377112600753 340.21494704957274 1492.9472198537403 89.97138067102662 1242.7036534751942 206.66187207736158z" fill="rgba(28, 83, 142, 0.4)" class="triangle-float2"></path><path d="M757.89,1370.048C837.167,1366.383,894.514,1303.378,933.831,1234.44C972.689,1166.308,997.97,1084.812,959.576,1016.417C920.558,946.91,837.596,921.858,757.89,921.017C676.382,920.157,591.838,942.922,548.692,1012.08C503.295,1084.845,508.043,1178.077,551.317,1252.125C594.194,1325.495,673.001,1373.973,757.89,1370.048" fill="rgba(28, 83, 142, 0.4)" class="triangle-float2"></path><path d="M539.983936933696 630.8099845822742L781.922979622061 420.9000562261117 518.8101388878573 325.1348139456376z" fill="rgba(28, 83, 142, 0.4)" class="triangle-float2"></path><path d="M462.125243295046-21.459493022645002L431.4921297791027 228.02719561866812 680.9788184204158 258.66030913461145 711.6119319363592 9.173620493298309z" fill="rgba(28, 83, 142, 0.4)" class="triangle-float2"></path><path d="M1158.461,1361.545C1254.885,1361.716,1331.159,1287.754,1376.709,1202.767C1419.514,1122.901,1424.139,1028.001,1379.488,949.152C1334.185,869.152,1250.168,823.86,1158.461,817.362C1051.996,809.818,928.016,820.477,875.588,913.445C823.643,1005.556,885.101,1112.575,941.55,1201.996C992.903,1283.344,1062.26,1361.374,1158.461,1361.545" fill="rgba(28, 83, 142, 0.4)" class="triangle-float2"></path></g><defs><mask id="SvgjsMask1036"><rect width="1920" height="1080" fill="#ffffff"></rect></mask><style>
            @keyframes float1 {
                0%{transform: translate(0, 0)}
                50%{transform: translate(-10px, 0)}
                100%{transform: translate(0, 0)}
            }

            .triangle-float1 {
                animation: float1 5s infinite;
            }

            @keyframes float2 {
                0%{transform: translate(0, 0)}
                50%{transform: translate(-5px, -5px)}
                100%{transform: translate(0, 0)}
            }

            .triangle-float2 {
                animation: float2 4s infinite;
            }

            @keyframes float3 {
                0%{transform: translate(0, 0)}
                50%{transform: translate(0, -10px)}
                100%{transform: translate(0, 0)}
            }

            .triangle-float3 {
                animation: float3 6s infinite;
            }
        </style></defs></svg>